Motion_pl05
version=1
nRows=5
nColumns=43
inDegrees=yes
endheader
time	pelvis_tilt	pelvis_list	pelvis_rotation	pelvis_tx	pelvis_ty	pelvis_tz	hip_flexion_r	hip_adduction_r	hip_rotation_r	knee_angle_r	ankle_angle_r	subtalar_angle_r	mtp_angle_r	hip_flexion_l	hip_adduction_l	hip_rotation_l	knee_angle_l	ankle_angle_l	subtalar_angle_l	mtp_angle_l	lumbar_extension	lumbar_bending	lumbar_rotation	neck_flexion	neck_lateral_bending	neck_rotation	arm_flex_r	arm_add_r	arm_rot_r	elbow_flex_r	pro_sup_r	wrist_flex_r	wrist_dev_r	hand_finger_flex_r	arm_flex_l	arm_add_l	arm_rot_l	elbow_flex_l	pro_sup_l	wrist_flex_l	wrist_dev_l	hand_finger_flex_l
      1.34000000	     -2.86845881	     15.97517881	     94.32819974	     -0.00190013	      0.57653118	      0.43044477	     63.40106309	     -5.07676622	     -0.33629763	   -118.94865331	      9.62980824	     -5.18286276	     25.24061603	     57.71406812	      3.27285055	     -4.34817349	   -112.82448774	     22.88709499	    -19.18211559	     18.36480049	    -64.96509373	     -0.24130633	     -3.93979138	      5.68489420	      3.51698462	     -3.95998034	     37.98267085	    -47.54186646	      7.87904252	     63.10199521	     96.28054219	    -30.63248280	      0.38668373	     39.65020327	     31.92049063	    -45.06847707	      0.70316538	     75.55693123	    125.53827129	    -14.42512256	     11.09241625	     90.00021046
      1.34250000	     -2.67588879	     15.76337540	     94.49139577	     -0.00250055	      0.57196938	      0.42981338	     64.08135333	     -5.20857968	     -0.52156586	   -119.60189600	      9.67926654	     -5.10420363	     25.95966897	     58.57101139	      3.32347770	     -4.21434121	   -113.67695687	     22.77451659	    -19.36365210	     18.67717647	    -65.04267793	      0.13832157	     -3.95072843	      5.81736678	      3.32750541	     -3.85505062	     41.26345085	    -47.03612050	     10.20268817	     62.42764138	     97.04716868	    -31.39141309	      0.06077737	     39.17458925	     34.18992662	    -44.47340151	      1.35785547	     75.74896724	    125.62485232	    -13.73691096	     11.58465600	     90.00021046
      1.34500000	     -2.66338015	     15.58912529	     94.60283648	     -0.00288094	      0.56759337	      0.42922510	     64.74485637	     -5.35811990	     -0.55242357	   -120.26459104	      9.77966021	     -5.17815819	     26.19856579	     59.34371433	      3.38914423	     -4.24778060	   -114.49208297	     22.63686212	    -19.27419772	     18.79679922	    -65.30506991	      0.27669862	     -3.90733037	      6.57295397	      3.40444633	     -3.99119901	     43.99014119	    -46.78686535	     11.82611551	     62.27247268	     97.55196449	    -31.19124528	     -0.02484356	     39.10631352	     36.61678834	    -44.07526597	      2.48554313	     76.15837448	    125.80333769	    -13.43325636	     11.51906898	     90.00021046
      1.34750000	     -2.59268120	     15.43562314	     94.72186178	     -0.00329247	      0.56332546	      0.42859895	     65.35186975	     -5.50132569	     -0.67289822	   -120.92399525	      9.89504547	     -5.30648088	     26.44145565	     60.07807827	      3.43745590	     -4.22056126	   -115.28120415	     22.56336751	    -19.24775824	     18.94197243	    -65.47975762	      0.47743843	     -3.82146557	      6.87141330	      3.33812061	     -4.09163976	     46.82145630	    -46.39401163	     13.64519793	     61.81192360	     98.21155359	    -31.21449917	     -0.08449227	     38.87826496	     39.07643625	    -43.49303181	      3.61612732	     76.28541760	    125.86718274	    -13.13353837	     11.57955035	     90.00021046
      1.35000000	     -2.49977041	     15.29292227	     94.81262419	     -0.00366965	      0.55924786	      0.42796640	     65.91116855	     -5.59414954	     -0.82903179	   -121.53785675	     10.03798382	     -5.51398487	     26.64221805	     60.77513659	      3.46019602	     -4.17635712	   -116.03877977	     22.49446777	    -19.19708937	     19.09493003	    -65.68069335	      0.67509187	     -3.74683022	      7.24113322	      3.29791203	     -4.15699368	     49.57828693	    -45.92187462	     15.40729123	     61.42067421	     98.86370331	    -31.30499728	     -0.17402323	     38.60765025	     41.42063086	    -42.92285752	      4.65103958	     76.42359290	    125.84709158	    -12.95593786	     11.66125065	     90.00021046
